<?xml version="1.0" encoding="utf-8"?>
<!-- Generator: Adobe Illustrator 19.0.0, SVG Export Plug-In . SVG Version: 6.00 Build 0)  -->
<svg version="1.1" xmlns="http://www.w3.org/2000/svg" xmlns:xlink="http://www.w3.org/1999/xlink" x="0px" y="0px"
	 viewBox="0 0 559 455" style="enable-background:new 0 0 559 455;" xml:space="preserve">
<style type="text/css">
	.st0{fill:none;stroke:#E6314F;stroke-width:5;stroke-miterlimit:10;}
	.st1{fill:url(#XMLID_31_);}
	.st2{fill:none;stroke:#E6314F;stroke-width:20;stroke-miterlimit:10;}
	.st3{fill:none;stroke:#E6314F;stroke-width:2;stroke-miterlimit:10;}
	.st4{fill:#E6314F;}
	.st5{fill:none;}
	.st6{fill:#7F1C32;}
	.st7{font-family:'Belizio-BoldItalic';}
	.st8{font-size:24px;}
	.st9{font-size:14px;}
</style>
<g id="contorno">
	<g id="Layer_2">
		<circle id="XMLID_2_" class="st0" cx="269.7" cy="230.7" r="217"/>
		<circle id="XMLID_4_" class="st0" cx="269.7" cy="230.7" r="217"/>
	</g>
	<g id="Layer_3">
		<radialGradient id="XMLID_31_" cx="270.6667" cy="230.6667" r="185" gradientUnits="userSpaceOnUse">
			<stop  offset="0.6872" style="stop-color:#FBFBFB"/>
			<stop  offset="0.9487" style="stop-color:#CCCCCC"/>
		</radialGradient>
		<circle id="XMLID_3_" class="st1" cx="270.7" cy="230.7" r="185"/>
	</g>
	<g id="Layer_4">
		<circle id="XMLID_5_" class="st2" cx="269.7" cy="231.7" r="90.7"/>
	</g>
	<g id="Layer_6">
		<line id="XMLID_9_" class="st3" x1="213.3" y1="22.5" x2="248.3" y2="152.5"/>
		<line id="XMLID_10_" class="st3" x1="326.5" y1="22" x2="291" y2="152.8"/>
		<line id="XMLID_11_" class="st3" x1="423.5" y1="78" x2="327.8" y2="174.5"/>
		<line id="XMLID_12_" class="st3" x1="479.8" y1="174.8" x2="349.3" y2="210.5"/>
		<line id="XMLID_13_" class="st3" x1="479.3" y1="288.3" x2="365.5" y2="258"/>
		<line id="XMLID_14_" class="st3" x1="423.3" y1="385.5" x2="340" y2="302.3"/>
		<line id="XMLID_15_" class="st3" x1="326.3" y1="441.8" x2="295.3" y2="328.8"/>
		<line id="XMLID_16_" class="st3" x1="213.5" y1="441.8" x2="244.3" y2="327.5"/>
		<line id="XMLID_17_" class="st3" x1="115.8" y1="384.8" x2="198.5" y2="302.5"/>
		<line id="XMLID_18_" class="st3" x1="60.3" y1="287.3" x2="173" y2="257.5"/>
		<line id="XMLID_19_" class="st3" x1="61.3" y1="175.3" x2="172" y2="205.5"/>
		<line id="XMLID_20_" class="st3" x1="116.7" y1="78.7" x2="198.7" y2="160.3"/>
		<g id="XMLID_79_">
			<g id="XMLID_57_">
				<path id="XMLID_222_" class="st4" d="M451,308.4c1.1,2.1,2.1,3.7,2.9,4.6c0.4-0.6,0.9-0.6,1.3-0.4c0.6,0.4,0.9,1.3,0.5,2.2
					c-0.2,0.5-0.5,0.8-0.8,1c-1.6-1.2-3.6-5.5-5.5-9.3c0.2-0.6,0.3-0.8,0.6-1.4c2.4,1.2,4.9,2.1,7.3,2.9c0.1,0,0.3,0,0.9-0.7
					c0.1,0.1,0.1,0.2,0.2,0.3c0,0.1,0.1,0.1,0,0.2c-0.5,1.3-0.8,1.9-1.3,3.1C455.1,310.3,452.9,309.4,451,308.4z"/>
				<path id="XMLID_206_" class="st4" d="M447.9,315.2c-0.2-0.2-0.4-0.4-0.6-0.5c-0.4-0.2-0.6-0.2-0.8,0.3c-0.1,0.2-0.2,0.4-0.3,0.7
					c-0.1-0.1-0.2-0.2-0.3-0.3c-0.1-0.1-0.1-0.1-0.1-0.2c-0.1-0.6,0-1.4,0.4-2.4c0.4-0.9,1-1.1,1.8-0.6c0.3,0.2,0.5,0.4,0.8,0.7
					c1.5,1.5,2.2,2.3,3.7,3.8c0.4,0.5,0.8,0.6,1.6-0.5c0.1,0.1,0.1,0.2,0.2,0.3c0,0,0,0.1,0,0.2c-0.7,1.5-1,2.2-1.8,3.6
					C450.8,318.2,449.8,317.2,447.9,315.2z M454.9,322.7c-0.8-0.6-1-1.8-0.6-2.5c0.3-0.7,0.9-0.8,1.4-0.5c0.7,0.5,1.1,1.6,0.6,2.6
					C456,323,455.4,323.1,454.9,322.7z"/>
				<path id="XMLID_204_" class="st4" d="M447.4,322.3c1.6,2.2,2,4.5,1,6.4c-0.6,0-1.1-0.2-1.4-0.5c-0.8-0.6-0.8-1.6-0.5-2.2
					c0.3-0.5,0.7-0.8,1.3-0.4c0.1,0.1,0.2,0.1,0.2,0.2c0-1.3-0.9-3.4-3.7-6.3c-0.3-0.3-0.5-0.5-0.8-0.8c0.4-0.8,0.7-1.3,1.1-2.1
					c1.3,1.3,2,2,3.3,3.4c0.6,0.6,1.1,1.1,1.7,1.5c0.7,0.5,1.1,0.6,2-0.3c0.1,0.1,0.1,0.2,0.2,0.3c0,0,0,0.1,0,0.2
					c-0.6,1.2-1,1.8-1.6,3C449.7,324.4,448.6,323.6,447.4,322.3z"/>
				<path id="XMLID_191_" class="st4" d="M443,325c2.2,1.6,3.9,6.3,1.8,9.6c-0.6,1-1.2,1.7-2,2.3c-1.8-2.3-2.7-3.5-4.6-5.7
					c-2.3-2.7-2.6-6.4-1.1-9.1c1-1.8,2.2-2,3.1-1.4c1.1,0.7,1.4,2,0.8,3.7C441.7,324.4,442.4,324.6,443,325z M439.9,323.2
					c-0.7-0.5-1.5-0.5-2.2,0.7c-1.5,2.6,0.9,4.4,2.6,6.7c-1-1.7-1.2-3.6-0.5-4.9c0.3-0.4,0.5-0.6,0.7-0.9
					C440.7,324.3,440.5,323.6,439.9,323.2z M444.3,333.6c1.1-1.7-0.5-4.7-2-5.8c-0.8-0.6-1.4-0.5-1.8,0c-0.5,0.8-0.5,2,2.1,5.4
					c0.3,0.4,0.5,0.6,0.8,1C443.8,334.1,444.1,333.9,444.3,333.6z"/>
				<path id="XMLID_188_" class="st4" d="M437.2,336.6c-1-0.8-2.2-1.1-3.1,0.1c-0.4,0.5-0.6,1.2-0.6,2.1c-0.1,0-0.2,0-0.3,0
					c0,0-0.1,0-0.1,0c0,0,0-0.1-0.1-0.2c-0.2-1.1-0.1-2.7,0.8-4c1.1-1.6,2.7-1.6,4.1-0.5c2.1,1.7,3.5,5.7,1.4,8.6
					c-1,1.3-2,1.2-2.9,0.5c-0.9-0.8-1.3-2.1,0.1-4.1c0.5-0.7,1-1.3,1.5-1.7C437.8,337.2,437.5,336.8,437.2,336.6z M437.6,338.8
					c-0.9,1.3-0.6,2.1,0.1,2.7c0.5,0.4,1,0.4,1.3-0.1c0.7-0.9,0.2-2.5-0.6-3.6C438.1,338.2,437.8,338.6,437.6,338.8z"/>
				<path id="XMLID_186_" class="st4" d="M427.1,354.5c-0.6-0.6-2.7-4.3-3.2-4.7c-0.3-0.3-0.6-0.3-0.9,0.1c-0.1,0.1-0.3,0.3-0.4,0.6
					c-0.1-0.1-0.1-0.2-0.2-0.3c-0.1-0.1,0-0.1,0-0.2c0.1-0.6,0.2-1.2,0.9-1.9c0.6-0.7,1.2-0.8,1.9-0.1c0.8,0.8,2.5,3.9,3.1,4.5
					c0.3,0.3,0.6,0.4,0.9,0.1c0.6-0.7,0.7-2.8-2.3-6.7c-0.3-0.4-0.4-0.5-0.7-0.9c0.6-0.7,0.8-1,1.4-1.7c1.3,1.8,2,2.7,3.3,4.6
					c0.2,0.3,0.4,0.5,0.7,0.8c0.4,0.3,0.7,0.4,0.9,0.1c0.6-0.7,0.6-2.8-2.4-6.7c-0.3-0.4-0.4-0.5-0.7-0.9c0.5-0.7,0.8-1.1,1.4-1.8
					c1.6,1.9,2.3,2.9,3.9,4.9c0.3,0.4,0.6,0.7,0.8,0.9c0.3,0.3,0.6,0.4,1.5-0.3c0.1,0.1,0.1,0.2,0.2,0.3c0,0,0,0.1,0,0.2
					c-0.8,1-1.2,1.6-2,2.6c-0.6-0.5-1.4-1.4-2.2-2.5c1.2,2.1,1.1,4.2,0.1,5.4c-0.7,0.8-1.4,0.7-2.2-0.1c-0.3-0.2-0.7-0.8-1.1-1.3
					c1.2,2.1,1,4.2-0.1,5.3C428.9,355.3,428,355.5,427.1,354.5z"/>
			</g>
		</g>
		<g id="XMLID_84_">
			<g id="XMLID_58_">
				<path id="XMLID_213_" class="st4" d="M379.2,391.7c-0.2-0.5-0.5-0.6-0.9-0.2c-0.2,0.1-0.3,0.3-0.5,0.6c-0.1-0.2-0.1-0.3-0.2-0.5
					c0-0.1,0-0.2,0-0.2c0.2-0.7,0.5-1.4,1.3-2.2c0.7-0.7,1.4-0.6,1.9,0.5c0.2,0.3,0.3,0.8,0.5,1.3c1.5,4.6,2.1,7,2.9,11.8
					c0.2,1.1,0.4,1.2,1.4,0.8c0,0.2,0,0.3,0.1,0.4c0,0.1,0,0.3-0.1,0.3c-1.1,0.8-1.7,1.2-2.9,2c-0.1,0-0.1,0-0.1-0.1
					c-0.8-5.6-1.5-8.4-3.1-13.7C379.4,392.2,379.3,391.9,379.2,391.7z"/>
				<path id="XMLID_210_" class="st4" d="M376.5,397.4c-0.7-1.5-1.6-2.4-2.8-1.4c-0.5,0.4-1,1-1.3,2c-0.1-0.1-0.2-0.1-0.3-0.2
					c0,0-0.1-0.1-0.1-0.1c0,0,0-0.1,0-0.2c0.2-1.3,0.9-3,2.1-4c1.6-1.3,3.1-0.5,4,1.4c1.4,3,1.1,8.3-2,10.2c-1.4,0.9-2.3,0.2-2.7-1
					c-0.5-1.3-0.4-3,1.7-4.4c0.7-0.5,1.4-0.8,2-1.1C376.9,398.4,376.7,397.8,376.5,397.4z M376,400.1c-1.3,0.9-1.4,2-1,3
					c0.2,0.7,0.7,1,1.2,0.6c1-0.6,1.2-2.6,0.8-4.3C376.7,399.6,376.3,399.9,376,400.1z"/>
				<path id="XMLID_157_" class="st4" d="M366,402.8c0-1.8,0.5-3.9,1.9-4.8c1.2-0.8,2.3-0.2,3,1.3c1.3,2.8,0.4,8.6-2.9,10.3
					c-1,0.5-1.8,0.7-2.7,0.8c-0.3-2.7-0.5-4-1.1-6.5c-0.1-0.5-0.2-0.9-0.4-1.2c-0.3-0.6-0.5-0.6-1.5-0.5c0-0.1-0.1-0.2-0.1-0.3
					c0-0.1,0-0.1,0.1-0.2c1.1-0.6,1.6-0.9,2.7-1.6C365.4,400.6,365.8,402,366,402.8z M368.2,408.3c1.7-0.9,1.9-4.7,1.1-6.7
					c-0.4-0.9-0.9-1.4-1.5-1c-1,0.6-1.3,1.9-0.7,6.4c0.1,0.6,0.1,0.8,0.2,1.4C367.5,408.5,367.9,408.4,368.2,408.3z M370.9,409.2
					c0.2,2-0.3,3.7-1.2,4.1c-0.8,0.4-1.6-0.6-2.2-0.3c-0.6,0.2-0.8,0.8-0.8,1.7c-0.2,0-0.3,0.1-0.5,0.1c-0.1-1.9,0.4-3.5,1.2-3.9
					c0.9-0.4,1.5,0.5,2.2,0.2c0.6-0.3,0.8-1,0.7-1.9C370.6,409.2,370.7,409.2,370.9,409.2z"/>
				<path id="XMLID_148_" class="st4" d="M355.6,410.8c-0.9-2.8-0.1-6,2.8-7.4c1.7-0.8,3.3-0.2,4.1,1.8c1.1,2.8,0.2,6.7-3,7.8
					C357.6,413.8,356.2,412.8,355.6,410.8z M360.1,406c-0.5-1.3-1-1.9-1.7-1.5c-1.2,0.6-1.3,3.2-0.4,5.9c0.4,1.3,0.9,2,1.6,1.7
					C361,411.5,361.1,408.5,360.1,406z"/>
			</g>
		</g>
		<g id="XMLID_146_">
			<g id="XMLID_59_">
				<path id="XMLID_248_" class="st4" d="M293.2,428.5c-0.2-1.3-0.9-2.2-2.2-2c-0.7,0.1-1.3,0.4-1.8,1c-0.1-0.1-0.1-0.2-0.2-0.3
					c0,0,0-0.1,0-0.1c0-0.1,0-0.1,0.1-0.1c0.8-1.1,1.8-1.9,3.3-2.1c1.8-0.3,2.9,0.9,3.1,2.6c0.4,2.8-1.5,6.3-4.7,6.7
					c-1,0.1-1.8,0-2.4-0.5c-0.2-1.4,0.4-2.1,1.3-2.2c0.5-0.1,1,0.2,1,0.9c0,0.3,0,0.6-0.1,0.9c0.1,0,0.3,0,0.5,0
					C292,433.1,293.6,431.3,293.2,428.5z"/>
				<path id="XMLID_241_" class="st4" d="M281.9,428.7c0.6-1.4,1.8-2.9,3.4-3.1c1.4-0.1,2.2,0.8,2.3,2.2c0.3,2.6-2,6.8-5.7,7.1
					c-1.1,0.1-2,0-2.9-0.2c0.4-2.3,0.5-3.5,0.9-5.8c0.1-0.5,0.1-0.9,0.1-1.2c0-0.6-0.3-0.7-1.2-1c0-0.1,0-0.2,0-0.3
					c0-0.1,0.1-0.1,0.1-0.1c1.2-0.1,1.8-0.1,3.1-0.2C282.1,426.8,282,428,281.9,428.7z M284,435.4c0.2,0.1,0.3,0.1,0.5,0.1
					c0.1,0,0,0.1,0,0.2c-1,1.1-1.5,1.7-2.5,2.8c-0.2,0.2-0.3,0.2-0.4,0.2c-0.2,0-0.2,0-0.4,0c-0.2,0-0.3,0-0.4-0.2
					c-0.7-1-1-1.5-1.7-2.6c0-0.1,0-0.2,0.1-0.2c0.2-0.1,0.2-0.1,0.4-0.2c0.8,0.5,1.2,0.8,2,1.3C282.6,436.4,283.1,436.1,284,435.4z
					 M282.4,433.9c1.9-0.1,3.1-3.1,2.9-4.9c-0.1-0.8-0.4-1.4-1.1-1.4c-1.2,0.1-2,1-2.6,4.9c-0.1,0.5-0.1,0.7-0.2,1.2
					C281.7,433.9,282.1,434,282.4,433.9z"/>
				<path id="XMLID_230_" class="st4" d="M274.5,431.8c-0.6,1.9-2,3.5-4,3.5c-1.1,0-1.8-0.6-1.8-1.8c0-0.9,1.2-4.8,1.2-5.5
					c0-0.4-0.2-0.6-0.7-0.6c-0.2,0-0.4,0-0.7,0.1c0-0.1,0-0.2,0.1-0.4c0-0.1,0.1-0.1,0.1-0.1c0.4-0.3,1.1-0.6,2.1-0.6
					c0.9,0,1.4,0.4,1.4,1.3c0,1.1-1.1,4.5-1.1,5.3c0,0.5,0.2,0.7,0.7,0.7c1.1,0,2.4-1.2,3.3-6.1c0.1-0.4,0.1-0.7,0.2-1.1
					c0.9,0,1.3,0,2.2-0.1c-0.4,2.4-0.6,3.6-1,6c-0.1,0.5-0.1,0.8-0.1,1.1c0,0.5,0.1,0.7,1.2,1c0,0.1,0,0.2-0.1,0.3
					c0,0.1-0.1,0.1-0.1,0.1c-1.3,0.1-1.9,0.1-3.2,0.1C274.3,434.3,274.3,433.1,274.5,431.8z"/>
				<path id="XMLID_228_" class="st4" d="M265.1,430.1c0-1.3-0.5-2.3-1.8-2.4c-0.7,0-1.3,0.1-2,0.6c-0.1-0.1-0.1-0.2-0.2-0.3
					c0,0,0-0.1,0-0.1c0-0.1,0-0.1,0.1-0.1c1-1,2.1-1.5,3.6-1.5c1.8,0.1,2.7,1.4,2.7,3.1c0,2.8-2.6,5.9-5.8,5.8c-1,0-1.7-0.3-2.3-0.9
					c0.1-1.4,0.8-2,1.6-1.9c0.5,0,0.9,0.4,0.9,1c0,0.3-0.1,0.6-0.3,0.9c0.1,0.1,0.3,0.1,0.5,0.1
					C263.2,434.4,265.1,432.9,265.1,430.1z"/>
				<path id="XMLID_225_" class="st4" d="M257.4,429.8c0.1-1.3-0.3-2.4-1.7-2.6c-0.6-0.1-1.3,0.1-2,0.5c-0.1-0.1-0.1-0.2-0.2-0.3
					c0,0,0-0.1,0-0.1c0,0,0-0.1,0.1-0.1c0.8-0.8,2.2-1.4,3.6-1.3c1.9,0.1,2.7,1.5,2.6,3.2c-0.2,2.6-2.5,5.8-6,5.5
					c-1.6-0.1-2.2-1.1-2-2.2c0.1-1.2,1-2.2,3.3-2c0.8,0.1,1.6,0.2,2.2,0.4C257.3,430.6,257.4,430.2,257.4,429.8z M255.8,431.3
					c-1.5-0.1-2,0.6-2.1,1.4c-0.1,0.6,0.2,1,0.8,1.1c1.1,0.1,2.1-1.1,2.5-2.3C256.6,431.4,256.2,431.3,255.8,431.3z"/>
				<path id="XMLID_223_" class="st4" d="M248.3,430.1c-1.1,2.2-4,3.8-4.9,3.2c-0.3-0.2-0.3-1-0.2-1.5c0.2-1,1-1.3,1.7-1.2
					c0.5,0.1,0.9,0.4,0.9,1.1c0,0.1,0,0.2-0.1,0.3c1.1-0.5,2.4-2.1,3.6-5.6c0.1-0.4,0.2-0.6,0.4-1c0.9,0.1,1.3,0.2,2.2,0.3
					c-0.6,1.7-0.8,2.6-1.4,4.2c-0.2,0.7-0.4,1.4-0.5,2.1c-0.1,0.8,0,1.2,1.1,1.7c0,0.1-0.1,0.2-0.1,0.3c0,0-0.1,0.1-0.1,0.1
					c-1.3-0.1-1.9-0.2-3.2-0.4C247.5,433,247.7,431.7,248.3,430.1z"/>
			</g>
		</g>
		<g id="XMLID_153_">
			<g id="XMLID_60_">
				<path id="XMLID_314_" class="st4" d="M195.4,416.3c-1,2.6-4.5,5.4-7.9,4c-1-0.4-1.8-0.9-2.5-1.5c1.5-2.6,2.3-3.9,3.9-6.4
					c2-3,5.5-3.7,8.1-2.5c1.7,0.8,2.1,2,1.6,3c-0.5,1.1-1.6,1.7-3.2,1.3C195.7,414.8,195.6,415.5,195.4,416.3z M188.3,419.5
					c1.7,0.7,3.9-1.6,4.5-3.4c0.4-1,0.2-1.6-0.4-1.9c-0.8-0.4-2-0.3-4.3,3.4c-0.3,0.4-0.4,0.7-0.7,1.1
					C187.7,419.1,188,419.4,188.3,419.5z M196.5,412.8c0.3-0.7,0.2-1.6-1-2.2c-2.6-1.2-3.9,1.5-5.6,3.8c1.3-1.4,3-2,4.2-1.4
					c0.4,0.2,0.6,0.4,0.9,0.6C195.6,413.8,196.2,413.5,196.5,412.8z"/>
				<path id="XMLID_272_" class="st4" d="M180.9,418.1c0.2,0.2,0.2,0.2,0.4,0.4c0.1,0.1,0,0.2-0.1,0.2c-1.3,0.7-2,1-3.2,1.8
					c-0.2,0.1-0.3,0.1-0.5,0.1c-0.1-0.1-0.2-0.1-0.3-0.2c-0.2-0.1-0.2-0.2-0.3-0.4c-0.2-1.5-0.3-2.2-0.4-3.7c0-0.1,0-0.2,0.1-0.2
					c0.2,0,0.2,0,0.4,0c0.5,1,0.7,1.5,1.2,2.5C179.3,418.4,179.8,418.3,180.9,418.1z M183.9,412.4c0.5-1.4,0.6-2.7-0.7-3.4
					c-0.5-0.3-1.2-0.5-2.1-0.3c0-0.2,0-0.2,0-0.4c0,0,0-0.1,0-0.1c0,0,0.1-0.1,0.1-0.1c1-0.5,2.5-0.6,3.8,0.1c1.7,1,2,2.7,1.3,4.4
					c-1,2.7-4.1,5.4-7.2,3.7c-1.4-0.7-1.7-2-1.3-3.2c0.5-1.3,1.6-2.1,3.7-1c0.7,0.4,1.4,0.9,1.9,1.3
					C183.5,413.2,183.8,412.8,183.9,412.4z M182,413.4c-1.3-0.7-2.1-0.2-2.4,0.8c-0.2,0.6-0.1,1.2,0.4,1.5c1,0.5,2.2-0.5,3-1.7
					C182.7,413.8,182.3,413.5,182,413.4z"/>
				<path id="XMLID_270_" class="st4" d="M165.1,405.2c0.4-1.1,3.4-4.8,3.7-5.5c0.2-0.5,0.2-0.8-0.3-1.1c-0.2-0.1-0.4-0.2-0.6-0.4
					c0.1-0.1,0.1-0.2,0.2-0.4c0.1-0.1,0.1-0.1,0.2-0.1c0.5-0.1,1.2,0,2.1,0.7c0.8,0.6,1,1.3,0.5,2.4c-0.6,1.2-3.1,4.3-3.5,5.2
					c-0.2,0.5-0.2,0.9,0.2,1.2c0.8,0.6,2.5-0.2,5.7-4.8c0.3-0.4,0.4-0.6,0.7-1c0.8,0.5,1.1,0.8,1.9,1.3c-1.5,2-2.2,3.1-3.6,5.2
					c-0.2,0.3-0.4,0.6-0.5,1c-0.2,0.6-0.1,0.9,0.2,1.1c0.8,0.5,2.5-0.3,5.6-4.8c0.3-0.4,0.4-0.6,0.7-1c0.8,0.5,1.2,0.7,1.9,1.2
					c-1.5,2.2-2.3,3.4-3.7,5.7c-0.3,0.4-0.5,0.9-0.6,1.2c-0.2,0.5-0.2,0.8,0.7,1.7c-0.1,0.1-0.1,0.2-0.2,0.3c0,0-0.1,0.1-0.2,0
					c-1.1-0.6-1.7-0.9-2.8-1.6c0.2-0.9,0.8-2.1,1.6-3.4c-1.6,2.1-3.5,2.6-4.8,1.8c-0.9-0.6-1-1.5-0.5-2.8c0.2-0.4,0.6-1.2,0.9-1.7
					c-1.6,2.1-3.5,2.6-4.8,1.7C164.9,407.8,164.5,406.7,165.1,405.2z"/>
				<path id="XMLID_267_" class="st4" d="M163.7,399.2c0.7-1.5,0.7-3.1-0.5-4.1c-0.5-0.4-1.2-0.7-2.2-0.6c0-0.2,0-0.3,0-0.5
					c0-0.1,0.2-0.1,0.2-0.2c0,0,0.2-0.1,0.2-0.1c1-0.5,2.6-0.4,3.8,0.6c1.6,1.3,1.6,3.4,0.8,5.3c-1.3,3-4.7,5.7-7.6,3.4
					c-1.3-1-1.4-2.6-0.9-3.8c0.6-1.4,1.8-2.3,3.8-0.7c0.7,0.5,1.3,1.2,1.7,1.8C163.2,400.1,163.5,399.6,163.7,399.2z M161.7,400.1
					c-1.2-1-2-0.4-2.5,0.6c-0.3,0.7-0.2,1.4,0.3,1.8c0.9,0.7,2.2-0.2,3.1-1.6C162.3,400.6,162,400.3,161.7,400.1z"/>
				<path id="XMLID_264_" class="st4" d="M151,391c1.7-3.7,5-5.2,7.6-2.7c1.5,1.4,1.7,3.8,0.6,6.2c-1.5,3.3-4.7,5.5-7.5,3.1
					C150.1,396.1,149.8,393.5,151,391z M157.4,392.3c0.8-1.6,1-2.5,0.4-3.2c-1.1-1-3.4,0.9-5,4.2c-0.8,1.7-0.9,2.7-0.2,3.3
					C153.8,397.7,155.9,395.4,157.4,392.3z"/>
				<path id="XMLID_253_" class="st4" d="M151.8,382.7c-0.9-0.9-1.5-0.6-2,0.4c-0.9,1.8,1,4.7-0.3,7.4c-1,2.1-2.7,2.6-4.3,1
					c-1-1-1.4-2.4-1.5-3.1c0.6-1.3,1.3-1.3,1.8-0.9c0.4,0.4,0.6,1.3,0.2,2.1c-0.1,0.2-0.2,0.4-0.3,0.5c0.1,0.2,0.2,0.3,0.3,0.4
					c0.6,0.6,1.2,0.3,1.6-0.5c0.9-2-1-5.2,0.5-8c1.1-2.2,2.8-2.2,4.6-0.2c0.8,0.9,1.3,2.1,1.4,3c-0.7,1.2-1.4,1.4-1.9,0.9
					c-0.4-0.4-0.5-1.3-0.1-2c0.1-0.2,0.2-0.4,0.4-0.6C152,383,151.9,382.8,151.8,382.7z"/>
			</g>
		</g>
		<g id="XMLID_196_">
			<g id="XMLID_61_">
				<path id="XMLID_276_" class="st4" d="M101.6,344.7c-0.7-0.9-1.1-1.4-1.8-2.3c0.5-0.1,0.7-0.1,1.2-0.2c0.1,0,0.2,0,0.2,0
					c0.7,0.9,1,1.3,1.7,2.1c2.4-0.6,3.6-1,6-1.7c0.4-0.1,0.8-0.3,1.1-0.4c1-0.5,1-1,0.5-1.5c-0.5-0.6-1-0.8-1.5-0.9
					c0.1-0.1,0.2-0.2,0.3-0.3c0,0,0.1-0.1,0.1-0.1c0,0,0.1,0,0.2,0c1.7,0.3,2.6,0.6,3.6,1.7c0.8,0.9,0.9,1.8-0.6,2.5
					c-0.4,0.2-0.8,0.4-1.4,0.6c-2.7,0.9-4.1,1.3-6.8,2c0.5,0.6,0.7,0.8,1.2,1.4c-0.5,0.1-0.7,0.1-1.1,0.2c-0.1,0-0.3,0-0.4-0.1
					c-0.4-0.5-0.7-0.8-1.1-1.3c-1.7,0.4-2.6,0.6-4.3,1c-0.6-0.8-0.9-1.1-1.5-1.9C99.1,345.3,99.9,345.1,101.6,344.7z"/>
				<path id="XMLID_246_" class="st4" d="M98.5,334.1c3.3-1.4,7.5-1.1,9.8,1.6c1.3,1.5,0.8,3.3-1.6,4.4c-3.2,1.5-8.1,1.2-10.2-1.7
					C95.3,336.6,96.2,335,98.5,334.1z M105.4,337.8c1.5-0.7,2.2-1.3,1.6-1.9c-0.9-1.1-4.3-0.8-7.4,0.5c-1.6,0.7-2.2,1.2-1.7,1.9
					C98.8,339.5,102.4,339.2,105.4,337.8z"/>
				<path id="XMLID_244_" class="st4" d="M96.7,326.7c2.9-0.4,4.9,0.4,5.9,1.7c0.6,0.9,0.5,1.8-0.9,2.5c-0.4,0.2-0.8,0.3-1.4,0.4
					c-2.3,0.6-3.5,0.8-5.9,1.2c-0.3,0-0.3,0.1-0.1,1.2c-0.2,0-0.3,0-0.4,0c-0.1,0-0.2,0-0.2-0.1c-0.8-1.2-1.1-1.8-1.9-3
					c1-0.1,7.1-1.2,7.9-1.5c0.5-0.2,0.7-0.5,0.4-0.9c-0.6-0.8-2.6-1.4-7.9-0.5c-0.2,0-0.3,0.1-0.5,0.1c-0.2,0-0.3,0.1-0.2,1.2
					c-0.2,0-0.2,0-0.4,0c-0.1,0-0.1,0-0.2,0c-0.7-1.2-1-1.8-1.7-3.1c0.4,0,1.5-0.1,3.3-0.4c1.5-0.3,2.3-0.5,3.8-0.8
					c0.5-0.1,0.9-0.3,1.2-0.4c0.5-0.2,0.7-0.4,0.5-1.5c0.1,0,0.2-0.1,0.4-0.1c0.1,0,0.1,0,0.2,0.1c0.7,1.1,1,1.6,1.8,2.7
					C99.7,325.9,98.2,326.4,96.7,326.7z"/>
				<path id="XMLID_219_" class="st4" d="M91.1,320.9c-2.8,0.2-5-0.7-5.8-2.5c0.4-0.5,0.9-0.7,1.3-0.9c1-0.3,1.8,0.2,2.1,0.8
					c0.2,0.5,0.1,1-0.6,1.2c-0.1,0-0.2,0.1-0.3,0.1c1.1,0.7,3.4,1,7.5,0.1c0.5-0.1,0.7-0.2,1.2-0.3c0.4,0.8,0.7,1.2,1.1,1.9
					c-2,0.5-3,0.7-5,1.1c-0.9,0.2-1.7,0.4-2.4,0.6c-0.9,0.3-1.2,0.6-1.1,1.8c-0.2,0-0.2,0-0.4,0.1c-0.1,0-0.1,0-0.2-0.1
					c-0.6-1.1-0.9-1.7-1.4-2.8C87.9,321.7,89.3,321.2,91.1,320.9z"/>
				<path id="XMLID_88_" class="st4" d="M85.6,309.3c2.8-1,6-0.1,7.3,2.8c0.8,1.7,0.2,3.3-1.9,4.1c-2.8,1.1-6.6,0.2-7.7-3
					C82.7,311.5,83.6,310,85.6,309.3z M90.4,313.9c1.3-0.5,1.9-1,1.5-1.7c-0.6-1.2-3.2-1.4-5.8-0.5c-1.3,0.5-1.9,0.9-1.6,1.7
					C85,314.7,87.9,314.9,90.4,313.9z"/>
			</g>
		</g>
		<g id="XMLID_231_">
			<g id="XMLID_62_">
				<path id="XMLID_310_" class="st4" d="M62.7,238.8c0-0.3,0.3-0.4,0.5,0c1.2,2,1.8,3,3,4.9c-0.1,0.1-0.1,0.2-0.2,0.3
					c-0.1,0.1-0.1,0.1-0.2,0c-1.2-1.1-1.8-1.6-3-2.7C62.8,240.2,62.7,239.8,62.7,238.8z M72.9,242.4c1.4,0.6,2.9,1.8,3.1,3.4
					c0.2,1.4-0.8,2.2-2.2,2.4c-2.6,0.3-6.9-2-7.1-5.8c-0.1-1.2,0-2,0.2-3c2.3,0.4,3.5,0.6,5.8,0.9c0.5,0.1,0.9,0.1,1.2,0.1
					c0.6,0,0.7-0.3,1-1.2c0.1,0,0.2,0,0.3,0c0.1,0,0.1,0.1,0.1,0.1c0.1,1.2,0.1,1.9,0.2,3.1C74.8,242.5,73.6,242.5,72.9,242.4z
					 M67.6,242.9c0.2,2,3.2,3.1,5,3c0.8-0.1,1.4-0.4,1.4-1.1c-0.1-1.2-1-2-4.9-2.7c-0.5-0.1-0.7-0.1-1.2-0.2
					C67.7,242.1,67.6,242.6,67.6,242.9z"/>
				<path id="XMLID_308_" class="st4" d="M70.2,235c-2.3-0.8-4.3-3.5-3.8-4.4c0.2-0.3,1-0.4,1.4-0.4c1,0,1.5,0.8,1.4,1.5
					c0,0.5-0.3,1-0.9,1c-0.1,0-0.2,0-0.3,0c0.6,1,2.4,2.1,6.1,2.8c0.4,0.1,0.7,0.1,1.1,0.2c0,0.9,0,1.3,0.1,2.2
					c-1.8-0.3-2.6-0.4-4.4-0.8c-0.8-0.1-1.5-0.2-2.2-0.2c-0.8,0-1.2,0.2-1.5,1.4c-0.1,0-0.2,0-0.3-0.1c-0.1,0-0.1-0.1-0.1-0.1
					c-0.1-1.3-0.1-2-0.1-3.3C67.2,234.7,68.6,234.7,70.2,235z"/>
				<path id="XMLID_305_" class="st4" d="M63.8,225c0.9,0.1,1.6,0.9,1.5,1.7c0,0.7-0.5,1.2-1.1,1.1c-0.8,0-1.6-0.7-1.6-1.8
					C62.7,225.3,63.2,224.9,63.8,225z M73,227.6c0.3,0.1,0.5,0.1,0.7,0.1c0.4,0,0.6-0.1,0.6-0.6c0-0.2,0-0.4,0-0.7
					c0.1,0,0.2,0.1,0.4,0.1c0.1,0,0.1,0.1,0.1,0.1c0.3,0.5,0.6,1.1,0.5,2.1c0,0.9-0.5,1.4-1.4,1.3c-0.3,0-0.6-0.1-1-0.2
					c-1.9-0.5-2.9-0.7-4.8-1.2c-0.6-0.2-0.9-0.1-1.2,1.2c-0.1,0-0.2,0-0.3-0.1c0,0-0.1-0.1-0.1-0.1c0-1.5,0.1-2.3,0.2-3.8
					C69.2,226.6,70.5,226.9,73,227.6z"/>
				<path id="XMLID_302_" class="st4" d="M71.9,222.7c1.3,0.1,2.4-0.3,2.6-1.7c0.1-0.6-0.1-1.3-0.5-2.1c0.1-0.1,0.2-0.1,0.3-0.2
					c0,0,0.1,0,0.1,0c0,0,0.1,0,0.1,0.1c0.8,0.8,1.4,2.2,1.3,3.6c-0.2,1.9-1.5,2.7-3.2,2.6c-2.6-0.2-5.8-2.6-5.4-6.2
					c0.2-1.6,1.2-2.2,2.2-2c1.2,0.2,2.2,1,1.9,3.4c-0.1,0.8-0.3,1.6-0.5,2.2C71,222.6,71.5,222.6,71.9,222.7z M70.4,221.1
					c0.1-1.5-0.5-2.1-1.4-2.2c-0.6-0.1-1,0.2-1.1,0.8c-0.1,1.1,1.1,2.1,2.3,2.6C70.3,221.8,70.4,221.4,70.4,221.1z"/>
				<path id="XMLID_90_" class="st4" d="M75.9,215.3c0.2-1.1-0.3-1.5-1-1.7c-1.4-0.2-2.3,2.6-4.5,2.2c-1.6-0.2-2.6-1.8-2.3-3.9
					c0.2-1.3,0.9-2.1,1.3-2.4c1,0.2,1.3,0.9,1.2,1.4c-0.1,0.5-0.6,1-1.2,0.9c-0.1,0-0.3-0.1-0.4-0.2c-0.1,0.2-0.1,0.3-0.1,0.4
					c-0.1,0.8,0.3,1.3,0.9,1.4c1.5,0.2,2.7-2.6,4.9-2.2c1.7,0.3,2.4,1.8,2.1,4.2c-0.2,1.1-0.6,2-1.1,2.4c-1-0.2-1.5-0.8-1.4-1.5
					c0.1-0.5,0.5-0.9,1.1-0.8c0.2,0,0.3,0.1,0.5,0.2C75.8,215.6,75.9,215.5,75.9,215.3z"/>
			</g>
		</g>
		<g id="XMLID_236_">
			<g id="XMLID_55_">
				<path id="XMLID_292_" class="st4" d="M86.4,149.8c-0.8-1.5-1.3-3.5-0.6-5c0.6-1.4,1.7-1.5,2.8-0.7c2.1,1.4,4,5.8,2.6,9.3
					c-0.1,0.2-0.2,0.4-0.3,0.6c0.5,0.5,0.8,0.8,1.4,1.3c0.1,0.1,0.2,0.2,0.3,0.2c0.3,0.2,0.5,0.1,1.2-1.2c0.1,0.1,0.1,0.1,0.2,0.2
					c0,0,0.1,0.1,0.1,0.2c-0.6,1.4-0.8,2.1-1.3,3.5c0,0.1-0.1,0.1-0.1,0.1c-2.8-2.5-4.2-3.8-6.9-6.5c-0.3-0.3-0.6-0.6-0.9-0.7
					c-0.4-0.2-0.6-0.3-1.3,0.6c-0.1-0.1-0.1-0.1-0.2-0.2c0,0,0-0.1,0-0.2c0.5-1.3,0.7-1.9,1.3-3.1C84.9,148.5,85.9,149.4,86.4,149.8
					z M90.6,152.4c0.7-1.8-1-4.5-2.4-5.5c-0.7-0.4-1.3-0.5-1.6,0.2c-0.5,1.1-0.2,2.4,2.5,5.2c0.3,0.3,0.5,0.5,0.8,0.9
					C90.2,153.1,90.4,152.7,90.6,152.4z"/>
				<path id="XMLID_289_" class="st4" d="M91.9,142.7c1,0.7,2.1,0.8,2.7-0.5c0.3-0.5,0.4-1.2,0.3-2.2c0.1,0,0.2,0,0.3,0
					c0,0,0.1,0,0.1,0c0,0,0,0.1,0.1,0.1c0.3,1.1,0.3,2.7-0.3,4c-0.8,1.7-2.2,1.9-3.6,1c-2-1.4-3.7-5.2-2.1-8.3
					c0.7-1.4,1.7-1.5,2.5-0.9c0.9,0.7,1.4,1.9,0.3,4.1c-0.4,0.7-0.8,1.4-1.2,1.9C91.2,142.2,91.5,142.5,91.9,142.7z M91.3,140.6
					c0.7-1.3,0.3-2.2-0.3-2.7c-0.4-0.3-0.9-0.3-1.2,0.3c-0.5,1,0.1,2.5,0.9,3.5C90.9,141.2,91.1,140.9,91.3,140.6z"/>
				<path id="XMLID_286_" class="st4" d="M91,128.7c0.7,0.6,0.8,1.6,0.4,2.3c-0.3,0.6-0.9,0.7-1.3,0.4c-0.6-0.5-0.9-1.5-0.4-2.4
					C90,128.5,90.6,128.4,91,128.7z M96.9,135.9c0.2,0.2,0.3,0.4,0.5,0.5c0.3,0.2,0.5,0.2,0.8-0.2c0.1-0.2,0.2-0.4,0.3-0.6
					c0.1,0.1,0.1,0.2,0.2,0.3c0.1,0.1,0.1,0.1,0.1,0.2c0,0.6,0,1.3-0.5,2.1c-0.4,0.8-1,1-1.6,0.5c-0.2-0.2-0.4-0.4-0.7-0.6
					c-1.3-1.4-1.9-2.1-3.1-3.6c-0.4-0.5-0.6-0.6-1.5,0.4c-0.1-0.1-0.1-0.1-0.2-0.2c0,0,0-0.1,0-0.2c0.7-1.3,1-1.9,1.8-3.2
					C94.4,133.1,95.2,134.1,96.9,135.9z"/>
				<path id="XMLID_284_" class="st4" d="M98.3,127.8c0-0.9,0-1.8-0.1-2.2c-0.4,0.2-0.7,0.1-1-0.1c-0.4-0.3-0.6-1.1-0.2-1.7
					c0.3-0.5,0.7-0.7,1.2-0.8c0.6,1,0.2,4.4,0.7,5c0.3,0.4,2.4,0.6,3.4,0.8c0.1,0,0.3,0,0.9-0.5c0.1,0.1,0.1,0.2,0.2,0.3
					c0,0.1,0,0.1,0,0.2c-0.6,0.9-0.8,1.3-1.4,2.2c-1-0.3-2.2-0.6-3.2-0.9c-0.1,1.2,0,2.1,0.2,2.6c0.3-0.2,0.7-0.1,1,0.1
					c0.4,0.3,0.6,1,0.2,1.6c-0.3,0.5-0.7,0.8-1.2,0.8c-0.5-0.7-0.3-4.5-0.9-5.3c-0.2-0.3-2.2-0.4-3.2-0.6c-0.2,0-0.4,0-0.9,0.6
					c-0.1-0.1-0.1-0.2-0.2-0.3c0-0.1,0-0.1,0-0.2c0.6-0.9,0.8-1.4,1.4-2.3C96.2,127.2,97.4,127.5,98.3,127.8z"/>
				<path id="XMLID_93_" class="st4" d="M102.8,123.6c0.9,0.8,1.9,1.1,2.7-0.1c0.3-0.5,0.6-1.1,0.6-2c0.1,0,0.2,0,0.3,0
					c0,0,0.1,0,0.1,0c0,0,0,0.1,0,0.1c0.2,1,0,2.5-0.7,3.7c-1,1.5-2.4,1.5-3.6,0.5c-1.9-1.6-3-5.3-1.1-8c0.9-1.2,1.8-1.1,2.5-0.5
					c0.8,0.8,1.2,2-0.1,3.8c-0.4,0.6-0.9,1.2-1.4,1.6C102.2,123.1,102.5,123.4,102.8,123.6z M102.4,121.5c0.8-1.2,0.6-2,0-2.5
					c-0.4-0.4-0.9-0.4-1.2,0.1c-0.6,0.9-0.2,2.3,0.5,3.3C102,122.1,102.2,121.8,102.4,121.5z"/>
				<path id="XMLID_91_" class="st4" d="M109.2,119.6c0.6-0.8,0.5-1.4,0-1.9c-1-0.9-2.9,0.9-4.4-0.5c-1.1-1-1.2-2.8,0-4.4
					c0.7-0.9,1.6-1.2,2-1.3c0.6,0.7,0.6,1.4,0.3,1.8c-0.3,0.4-0.9,0.5-1.3,0.1c-0.1-0.1-0.2-0.2-0.3-0.4c-0.1,0.1-0.2,0.2-0.3,0.3
					c-0.5,0.6-0.4,1.2,0.1,1.6c1,1,3.2-0.7,4.6,0.6c1.2,1.1,1,2.7-0.3,4.4c-0.6,0.8-1.4,1.3-1.9,1.4c-0.7-0.6-0.7-1.4-0.4-1.9
					c0.3-0.4,0.8-0.5,1.2-0.1c0.1,0.1,0.2,0.2,0.3,0.4C109,119.8,109.1,119.7,109.2,119.6z"/>
			</g>
		</g>
	</g>
	<g id="Layer_7">
		<g id="XMLID_23_">
			<g id="XMLID_56_">
				<path id="XMLID_317_" class="st4" d="M151,73.7c0.2,1.3,0,3-1.1,3.9c-1,0.8-2,0.6-2.8-0.3c-1.4-1.7-1.7-5.8,1-7.9
					c0.8-0.6,1.5-1,2.2-1.4c0.8,1.8,1.3,2.7,2.1,4.5c0.2,0.4,0.3,0.6,0.5,0.8c0.3,0.4,0.5,0.4,1.4,0.1c0,0.1,0.1,0.1,0.1,0.2
					c0,0,0,0.1,0,0.1c-0.9,0.7-1.3,1-2.2,1.7C151.8,75.1,151.2,74.2,151,73.7z M148.1,70.3c-1.4,1.1-0.8,3.8,0.1,4.9
					c0.5,0.5,1,0.8,1.5,0.4c0.8-0.7,1-1.7-0.3-4.8c-0.2-0.4-0.2-0.6-0.4-0.9C148.7,70,148.4,70.1,148.1,70.3z"/>
				<path id="XMLID_299_" class="st4" d="M161.1,70.9c0.1,0.1,0.1,0.2,0.2,0.3c0.2,0.3,0.3,0.3,1.5-0.3c0,0.1,0.1,0.1,0.1,0.2
					c0,0.1,0,0.1,0,0.2c-1.1,0.8-1.6,1.1-2.7,1.9c0,0-0.1,0-0.1,0c-0.5-1.1-0.7-1.7-1.2-2.9c-0.2-0.4-0.5-1.5-0.8-2.1
					c0.1,1.3-0.2,3-1.3,3.8c-1,0.8-2.1,0.5-2.8-0.5c-1.4-1.8-1.4-5.8,1.3-7.8c0.8-0.6,1.5-1,2.3-1.3C159,65.9,159.7,67.6,161.1,70.9
					z M155.4,64.7c-1.4,1-1,3.7-0.1,4.9c0.4,0.6,0.9,0.8,1.4,0.5c0.8-0.6,1.1-1.6-0.1-4.8c-0.1-0.4-0.2-0.6-0.4-1
					C156,64.4,155.7,64.6,155.4,64.7z"/>
				<path id="XMLID_297_" class="st4" d="M165.7,62.5c0.5,2-0.2,3.5-1.4,4.3c-0.8,0.5-1.6,0.5-2.2-0.4c-0.2-0.2-0.3-0.5-0.4-0.9
					c-0.6-1.5-0.9-2.3-1.4-3.8c-0.1-0.2-0.1-0.2-1.1,0.1c0-0.1,0-0.2-0.1-0.3c0,0,0-0.1,0-0.1c1-0.7,1.6-1.1,2.6-1.8
					c0.2,0.7,1.5,4.7,1.8,5.2c0.2,0.3,0.5,0.4,0.8,0.2c0.7-0.5,1.3-2,0-5.6c-0.1-0.1-0.1-0.2-0.1-0.4c-0.1-0.2-0.1-0.2-1.1,0.1
					c0-0.1,0-0.2-0.1-0.3c0,0,0-0.1,0-0.1c1.1-0.7,1.6-1,2.7-1.7c0,0.2,0.2,1,0.7,2.2c0.4,1.1,0.6,1.6,0.9,2.7
					c0.1,0.4,0.3,0.7,0.4,0.9c0.2,0.3,0.4,0.4,1.4,0.2c0,0.1,0.1,0.2,0.1,0.3c0,0,0,0.1-0.1,0.1c-1,0.6-1.4,0.9-2.4,1.5
					C166.6,64.5,166,63.5,165.7,62.5z"/>
				<path id="XMLID_263_" class="st4" d="M173.6,58.2c0,1.3-0.4,2.9-1.7,3.7c-1.1,0.6-2.1,0.2-2.7-0.8c-1.2-1.9-0.8-5.9,2.1-7.6
					c0.9-0.5,1.6-0.8,2.4-1c0.5,1.9,0.8,2.9,1.4,4.8c0.1,0.4,0.2,0.7,0.4,0.9c0.2,0.4,0.5,0.5,1.4,0.3c0,0.1,0,0.2,0.1,0.3
					c0,0,0,0.1-0.1,0.1c-1,0.5-1.5,0.8-2.4,1.4C174.2,59.7,173.8,58.8,173.6,58.2z M171.3,54.5c-1.5,0.9-1.4,3.6-0.6,4.9
					c0.4,0.6,0.8,0.9,1.4,0.6c0.9-0.5,1.3-1.5,0.4-4.8c-0.1-0.4-0.2-0.6-0.3-1C172,54.2,171.6,54.3,171.3,54.5z M172.8,49.2
					c0.3-0.1,0.4,0,0.2,0.4c-1.1,1.6-1.7,2.5-2.7,4.1c-0.1,0-0.2,0-0.3,0c-0.1,0-0.1-0.1-0.1-0.2c0.4-1.3,0.6-2,1.1-3.3
					C171.7,49.8,172,49.6,172.8,49.2z"/>
				<path id="XMLID_102_" class="st4" d="M178.5,53.3c-0.3-2.1,1-4.6,2-4.6c0.3,0,0.7,0.6,0.9,0.9c0.4,0.7-0.1,1.4-0.6,1.7
					c-0.4,0.2-0.9,0.2-1.2-0.3c0-0.1-0.1-0.1-0.1-0.2c-0.6,0.9-0.7,2.6,0.1,5.7c0.1,0.4,0.1,0.5,0.2,0.9c-0.7,0.4-1.1,0.6-1.8,0.9
					c-0.4-1.4-0.6-2.2-1-3.6c-0.2-0.6-0.4-1.2-0.7-1.7c-0.3-0.6-0.6-0.8-1.7-0.6c0-0.1,0-0.2-0.1-0.3c0,0,0-0.1,0.1-0.1
					c1-0.6,1.5-0.8,2.5-1.4C177.7,50.9,178.2,52,178.5,53.3z"/>
				<path id="XMLID_99_" class="st4" d="M185.5,52.3c0.1,0.2,0.1,0.4,0.2,0.6c0.2,0.3,0.4,0.4,0.8,0.2c0.2-0.1,0.3-0.2,0.5-0.3
					c0,0.1,0,0.2,0.1,0.3c0,0.1,0,0.1,0,0.2c-0.2,0.4-0.6,0.9-1.5,1.3c-0.7,0.4-1.3,0.2-1.6-0.5c-0.1-0.2-0.2-0.5-0.3-0.8
					c-0.4-1.6-0.6-2.4-0.9-4c-0.1-0.5-0.3-0.7-1.4-0.4c0-0.1,0-0.2-0.1-0.3c0,0,0-0.1,0.1-0.1c1.2-0.6,1.8-0.9,3-1.4
					C184.8,49.1,185.1,50.2,185.5,52.3z M183.9,44.5c0.3,0.7-0.1,1.5-0.7,1.8c-0.6,0.3-1.1,0.1-1.3-0.3c-0.3-0.6-0.1-1.5,0.7-1.9
					C183.1,43.8,183.7,44,183.9,44.5z"/>
				<path id="XMLID_96_" class="st4" d="M193.6,45.8c0.9,2.3,0.1,5.1-2.6,6.2c-1.5,0.7-3,0.2-3.7-1.3c-1-2.1-0.3-5.1,2.6-6.4
					C191.5,43.6,193,44.2,193.6,45.8z M189.5,50c0.5,1,0.9,1.5,1.5,1.2c1.1-0.5,1.3-2.7,0.4-4.8c-0.5-1.1-0.9-1.5-1.6-1.2
					C188.6,45.7,188.6,48,189.5,50z"/>
			</g>
		</g>
		<g id="XMLID_28_">
			<g id="XMLID_42_">
				<path id="XMLID_350_" class="st4" d="M226.6,37.1c0.2,1.3,0.9,2.2,2.2,2c0.7-0.1,1.3-0.4,1.8-1c0.1,0.1,0.1,0.2,0.2,0.3
					c0,0,0,0.1,0,0.1c0,0,0,0.1-0.1,0.1c-0.8,1.2-1.8,1.9-3.3,2.1c-1.8,0.3-2.9-0.9-3.2-2.6c-0.4-2.8,1.5-6.3,4.6-6.7
					c1-0.1,1.8,0,2.4,0.4c0.2,1.4-0.4,2.1-1.2,2.2c-0.5,0.1-1-0.2-1.1-0.9c0-0.3,0-0.6,0.1-0.9c-0.1,0-0.3,0-0.5,0
					C227.7,32.6,226.2,34.3,226.6,37.1z"/>
				<path id="XMLID_139_" class="st4" d="M237.9,36.7c-0.5,1.5-1.7,3-3.3,3.2c-1.4,0.2-2.2-0.8-2.4-2.2c-0.3-2.6,1.8-6.8,5.5-7.2
					c1.1-0.1,2-0.1,2.9,0.1c-0.3,2.3-0.4,3.5-0.6,5.9c0,0.5-0.1,0.9,0,1.2c0.1,0.6,0.3,0.7,1.3,0.9c0,0.1,0,0.2,0,0.3
					c0,0.1-0.1,0.1-0.1,0.1c-1.2,0.1-1.9,0.2-3.1,0.3C237.8,38.6,237.8,37.4,237.9,36.7z M237.2,31.5c-1.9,0.2-3,3.2-2.8,5
					c0.1,0.8,0.4,1.4,1.1,1.3c1.2-0.1,2-1,2.5-5c0.1-0.5,0.1-0.7,0.2-1.2C238,31.5,237.6,31.4,237.2,31.5z"/>
				<path id="XMLID_136_" class="st4" d="M245.4,32.5c0.7-1.5,1.9-2.9,3.5-3.1c1.4-0.1,2.2,0.9,2.3,2.3c0.2,2.7-2.2,6.7-5.8,7
					c-0.2,0-0.5,0-0.7,0c-0.1,0.8-0.1,1.1-0.2,1.9c0,0.2,0,0.3,0,0.4c0,0.4,0.2,0.5,1.6,0.6c0,0.1,0,0.2-0.1,0.3
					c0,0.1,0,0.2-0.2,0.2c-1.5,0.1-2.2,0.2-3.6,0.3c-0.1,0-0.1,0-0.1-0.1c0.4-3.9,0.6-5.8,1.1-9.7c0.1-0.5,0.1-0.9,0-1.2
					c0-0.4-0.2-0.7-1.3-1c0-0.1,0-0.2,0-0.3c0-0.1,0.1-0.1,0.1-0.1c1.3-0.1,1.9-0.2,3.2-0.3C245.5,30.6,245.5,31.9,245.4,32.5z
					 M245.9,37.8c1.9-0.2,3-3.1,2.9-4.9c-0.1-0.9-0.4-1.4-1.1-1.4c-1.2,0.1-2,1-2.6,4.9c-0.1,0.5-0.1,0.7-0.2,1.2
					C245.2,37.7,245.6,37.8,245.9,37.8z"/>
				<path id="XMLID_134_" class="st4" d="M255.1,33c0.7-2.4,3.2-4.5,4.2-4c0.3,0.1,0.5,1,0.5,1.4c0,1-0.7,1.5-1.4,1.5
					c-0.5,0-1-0.2-1-0.9c0-0.1,0-0.2,0-0.3c-1,0.7-1.9,2.5-2.5,6.2c-0.1,0.4-0.1,0.7-0.2,1.1c-0.9,0-1.3,0.1-2.2,0.1
					c0.3-1.8,0.4-2.7,0.7-4.4c0.1-0.8,0.2-1.5,0.1-2.2c0-0.8-0.2-1.2-1.4-1.5c0-0.1,0-0.2,0-0.3c0-0.1,0.1-0.1,0.1-0.1
					c1.3-0.1,1.9-0.1,3.2-0.2C255.4,30,255.4,31.3,255.1,33z"/>
				<path id="XMLID_131_" class="st4" d="M262.7,35.4c-0.1,0.3-0.1,0.5-0.1,0.7c0,0.4,0.2,0.6,0.7,0.6c0.2,0,0.4,0,0.7-0.1
					c0,0.1,0,0.2-0.1,0.4c0,0.1-0.1,0.1-0.1,0.2c-0.4,0.3-1.1,0.6-2.1,0.7c-0.9,0-1.4-0.4-1.4-1.3c0-0.3,0-0.6,0.1-1
					c0.4-1.9,0.5-2.9,0.9-4.8c0.1-0.6,0-0.9-1.2-1.2c0-0.1,0-0.2,0.1-0.3c0-0.1,0.1-0.1,0.1-0.1c1.5,0,2.2-0.1,3.7-0.1
					C263.4,31.6,263.2,32.9,262.7,35.4z M264.5,26.1c0,0.9-0.7,1.6-1.5,1.7c-0.7,0-1.1-0.4-1.2-1c0-0.8,0.6-1.7,1.6-1.7
					C264.1,25,264.5,25.5,264.5,26.1z"/>
				<path id="XMLID_129_" class="st4" d="M267.5,34c0,1.3,0.6,2.3,1.9,2.3c0.7,0,1.3-0.2,1.9-0.7c0.1,0.1,0.1,0.2,0.2,0.3
					c0,0,0,0.1,0,0.1c0,0.1,0,0.1-0.1,0.1c-1,1-2,1.6-3.5,1.6c-1.8,0-2.8-1.3-2.8-3c0-2.8,2.4-6,5.5-6c1,0,1.7,0.3,2.3,0.8
					c0,1.4-0.7,2-1.5,2c-0.5,0-0.9-0.3-0.9-1c0-0.3,0.1-0.6,0.3-0.9c-0.1-0.1-0.3-0.1-0.5-0.1C269.2,29.6,267.5,31.1,267.5,34z"/>
				<path id="XMLID_114_" class="st4" d="M281.6,32.4c-0.1,2.9-2.3,5.5-5.6,5.4c-1.9,0-3.1-1.3-3.1-3.4c0-2.8,2.1-5.7,5.6-5.5
					C280.6,29,281.7,30.4,281.6,32.4z M275.5,34.9c0,1.3,0.1,2,1,2c1.3,0,2.6-2.3,2.7-5c0-1.4-0.2-2-1-2.1
					C276.6,29.8,275.5,32.3,275.5,34.9z M282.2,25.3c0.3,0,0.4,0.3,0,0.5c-2,1-3,1.5-4.9,2.5c-0.1-0.1-0.2-0.1-0.3-0.2
					c-0.1-0.1-0.1-0.1,0-0.2c1.1-1.1,1.7-1.6,2.9-2.7C280.8,25.2,281.3,25.3,282.2,25.3z"/>
				<path id="XMLID_112_" class="st4" d="M285.7,33.1c0.9-2.3,3.7-4.1,4.6-3.5c0.3,0.2,0.4,1,0.3,1.4c-0.1,1-0.9,1.4-1.5,1.4
					c-0.5,0-1-0.3-0.9-1c0-0.1,0-0.2,0.1-0.3c-1,0.6-2.2,2.3-3.2,5.9c-0.1,0.4-0.2,0.6-0.3,1.1c-0.9,0-1.3-0.1-2.2-0.1
					c0.4-1.7,0.7-2.6,1.1-4.3c0.2-0.7,0.3-1.5,0.4-2.2c0-0.8-0.1-1.2-1.2-1.6c0-0.1,0-0.2,0.1-0.3c0,0,0.1-0.1,0.1-0.1
					c1.3,0.1,1.9,0.1,3.2,0.2C286.2,30.2,286.1,31.5,285.7,33.1z"/>
				<path id="XMLID_110_" class="st4" d="M293.8,33.3c0.8-1.8,2.4-3.3,4.3-3.1c1.1,0.1,1.8,0.8,1.6,2c-0.1,0.9-1.7,4.7-1.8,5.3
					c0,0.4,0.1,0.6,0.6,0.7c0.2,0,0.4,0,0.7,0c0,0.1-0.1,0.2-0.1,0.4c0,0.1-0.1,0.1-0.1,0.1c-0.5,0.3-1.1,0.5-2.1,0.4
					c-0.9-0.1-1.3-0.5-1.3-1.5c0.1-1.1,1.6-4.3,1.7-5.1c0-0.5-0.1-0.7-0.6-0.8c-1-0.1-2.5,0.9-4,5.7c-0.1,0.4-0.2,0.6-0.3,1.1
					c-0.9-0.1-1.3-0.1-2.2-0.2c0.7-2.3,1-3.5,1.7-5.9c0.1-0.4,0.2-0.8,0.2-1.1c0-0.5,0-0.7-1.1-1.1c0-0.1,0.1-0.2,0.1-0.3
					c0,0,0.1-0.1,0.1-0.1c1.3,0.1,1.9,0.1,3.2,0.3C294.4,30.9,294.2,32,293.8,33.3z"/>
				<path id="XMLID_107_" class="st4" d="M303.2,37.4c-0.1,0.3-0.2,0.5-0.2,0.7c-0.1,0.4,0.1,0.6,0.6,0.7c0.2,0,0.4,0,0.7,0
					c0,0.1-0.1,0.2-0.1,0.4c0,0.1-0.1,0.1-0.1,0.1c-0.5,0.3-1.1,0.5-2.1,0.4c-0.9-0.1-1.3-0.6-1.2-1.5c0-0.3,0.1-0.6,0.2-1
					c0.6-1.9,1-2.8,1.6-4.7c0.2-0.6,0.2-0.9-1.1-1.3c0-0.1,0.1-0.2,0.1-0.3c0,0,0.1-0.1,0.1-0.1c1.5,0.2,2.2,0.2,3.6,0.4
					C304.5,33.7,304.1,34.9,303.2,37.4z M306.4,28.4c-0.1,0.9-1,1.5-1.7,1.4c-0.7-0.1-1.1-0.6-1-1.2c0.1-0.8,0.8-1.6,1.8-1.4
					C306.1,27.3,306.5,27.8,306.4,28.4z"/>
				<path id="XMLID_104_" class="st4" d="M314.7,35.7c-0.5,2.9-2.9,5.2-6.2,4.8c-1.9-0.3-2.9-1.7-2.7-3.7c0.4-2.8,2.8-5.4,6.2-4.9
					C314,32.2,315,33.7,314.7,35.7z M308.3,37.5c-0.2,1.3-0.1,2,0.7,2.1c1.3,0.2,2.8-2,3.2-4.6c0.2-1.4,0.1-2.1-0.8-2.2
					C310,32.6,308.6,34.9,308.3,37.5z"/>
			</g>
		</g>
		<g id="XMLID_35_">
			<g id="XMLID_53_">
				<path id="XMLID_347_" class="st4" d="M334.8,48.7c1.2,0.4,1.8,0.1,2.2-0.6c0.7-1.3-2-2.9-0.8-4.9c0.9-1.5,2.9-2.1,5.1-1.3
					c1.3,0.5,1.9,1.4,2.1,1.8c-0.6,0.9-1.4,1-2,0.8c-0.5-0.2-0.9-0.8-0.5-1.3c0.1-0.1,0.2-0.3,0.3-0.4c-0.1-0.1-0.3-0.2-0.4-0.2
					c-0.8-0.3-1.5,0-1.9,0.6c-0.8,1.4,1.9,3.2,0.7,5.2c-0.9,1.6-2.8,1.9-5.3,1c-1.1-0.4-2-1.1-2.2-1.7c0.6-1,1.4-1.2,2.1-1
					c0.5,0.2,0.8,0.7,0.5,1.3c-0.1,0.2-0.2,0.3-0.4,0.5C334.5,48.6,334.6,48.7,334.8,48.7z"/>
				<path id="XMLID_339_" class="st4" d="M346.7,51.1c-1.4,0.9-3.5,1.6-5.2,1c-1.4-0.6-1.6-1.8-0.9-3.1c1.4-2.4,6.3-4.8,10-3.2
					c1.1,0.5,1.9,1,2.6,1.6c-1.8,1.8-2.7,2.7-4.4,4.6c-0.4,0.4-0.6,0.7-0.8,1c-0.3,0.5-0.2,0.8,0.6,1.5c-0.1,0.1-0.1,0.2-0.2,0.3
					c0,0-0.1,0.1-0.2,0c-1.2-0.6-1.9-0.8-3.1-1.4C345.4,52.7,346.2,51.7,346.7,51.1z M349.5,46.4c-1.9-0.8-4.9,1.1-5.9,2.8
					c-0.5,0.8-0.5,1.4,0.2,1.7c1.2,0.5,2.5,0.1,5.6-2.9c0.4-0.4,0.6-0.6,1-0.9C350.2,46.8,349.9,46.5,349.5,46.4z"/>
				<path id="XMLID_257_" class="st4" d="M351.1,53.2c1.5-2.4,6.1-4.4,9.7-2.6c1.1,0.5,1.8,1.1,2.5,1.7c-2.2,2-3.3,3.1-5.4,5.1
					c-2.6,2.5-6.4,3.2-9.3,1.8c-1.9-0.9-2.2-2.1-1.6-3c0.7-1.1,2-1.5,3.8-1.1C350.5,54.6,350.7,53.9,351.1,53.2z M349.4,56.5
					c-0.4,0.7-0.4,1.6,0.9,2.2c2.8,1.3,4.5-1.3,6.7-3.1c-1.6,1.1-3.6,1.6-4.9,0.9c-0.5-0.2-0.7-0.5-1-0.6
					C350.5,55.6,349.8,55.8,349.4,56.5z M359.7,51.2c-1.8-0.9-4.7,0.9-5.7,2.5c-0.6,0.9-0.4,1.5,0.2,1.8c0.9,0.4,2.1,0.3,5.4-2.6
					c0.4-0.4,0.6-0.5,1-0.9C360.3,51.6,360,51.3,359.7,51.2z"/>
				<path id="XMLID_169_" class="st4" d="M363,59.5c-0.2,0.2-0.4,0.4-0.5,0.6c-0.3,0.4-0.2,0.6,0.3,0.9c0.2,0.1,0.4,0.2,0.7,0.3
					c-0.1,0.1-0.2,0.2-0.3,0.3c-0.1,0.1-0.1,0.1-0.2,0.1c-0.6,0.1-1.3,0-2.3-0.5c-0.9-0.5-1.1-1-0.5-1.8c0.2-0.2,0.4-0.5,0.7-0.8
					c1.5-1.5,2.3-2.2,3.8-3.6c0.5-0.4,0.6-0.7-0.4-1.6c0.1-0.1,0.2-0.1,0.3-0.2c0,0,0.1,0,0.2,0c1.4,0.7,2,1.1,3.4,1.9
					C366,56.6,364.9,57.6,363,59.5z M370.5,52.6c-0.6,0.8-1.7,1-2.4,0.6c-0.6-0.4-0.8-1-0.4-1.5c0.5-0.7,1.6-1.1,2.5-0.6
					C370.7,51.5,370.9,52.1,370.5,52.6z"/>
				<path id="XMLID_167_" class="st4" d="M373,57.7c1,0.6,1.5,0.9,2.5,1.5c-0.3,0.2-0.5,0.3-0.8,0.5c0,0-0.1,0.1-0.2,0
					c-0.9-0.6-1.4-0.8-2.3-1.4c-1.4,1.3-2.1,1.9-3.5,3.2c-0.2,0.2-0.5,0.5-0.6,0.7c-0.5,0.7-0.3,1.2,0.3,1.5
					c0.6,0.4,1.1,0.4,1.5,0.4c0,0.1,0,0.2-0.1,0.3c0,0,0,0.1,0,0.1c0,0-0.1,0.1-0.2,0.1c-1.4,0.2-2.2,0.1-3.4-0.6
					c-1-0.6-1.4-1.4-0.7-2.4c0.2-0.3,0.4-0.5,0.7-0.8c1.6-1.5,2.3-2.2,4-3.7c-0.6-0.4-0.9-0.5-1.6-0.9c0.3-0.2,0.4-0.3,0.7-0.5
					c0.1-0.1,0.2-0.1,0.3-0.1c0.6,0.3,0.8,0.5,1.4,0.8c1-0.9,1.5-1.3,2.5-2.2c0.8,0.5,1.2,0.7,2,1.2C374.5,56.3,374,56.8,373,57.7z"
					/>
				<path id="XMLID_163_" class="st4" d="M376.3,66.9c-1.4,0.8-3.4,1.2-4.9,0.3c-1.2-0.8-1.3-2-0.4-3.2c1.6-2.2,6.4-4,9.6-1.9
					c1,0.6,1.6,1.2,2.2,1.9c-1.9,1.6-2.8,2.4-4.7,4c-0.4,0.3-0.6,0.6-0.8,0.9c-0.4,0.5-0.3,0.7,0.4,1.5c-0.1,0.1-0.1,0.1-0.2,0.2
					c0,0-0.1,0-0.2,0c-1.1-0.7-1.6-1.1-2.7-1.8C374.9,68.4,375.8,67.4,376.3,66.9z M379.5,62.6c-1.6-1.1-4.7,0.5-5.8,2
					c-0.5,0.7-0.7,1.4,0,1.7c1,0.6,2.2,0.5,5.5-2.1c0.4-0.3,0.6-0.5,1-0.8C380,63.1,379.8,62.8,379.5,62.6z M386.1,61.2
					c0.3,0.2,0.1,0.5-0.3,0.4c-2.3-0.3-3.5-0.4-5.8-0.6c0-0.1-0.1-0.2-0.1-0.3c0-0.1,0-0.2,0.2-0.2c1.7-0.3,2.5-0.4,4.1-0.6
					C384.9,60.4,385.3,60.7,386.1,61.2z"/>
				<path id="XMLID_161_" class="st4" d="M384,69.2c2.1-1.4,4.4-1.7,6-0.5c-0.1,0.6-0.3,1-0.6,1.4c-0.6,0.8-1.6,0.7-2.1,0.3
					c-0.4-0.3-0.6-0.8-0.2-1.3c0.1-0.1,0.1-0.1,0.2-0.2c-1.2-0.1-3.3,0.7-6.2,3.1c-0.3,0.3-0.5,0.4-0.9,0.7
					c-0.7-0.5-1.1-0.8-1.9-1.3c1.4-1.2,2.1-1.8,3.5-3c0.6-0.5,1.1-1,1.6-1.6c0.5-0.6,0.7-1.1-0.1-2c0.1-0.1,0.2-0.1,0.3-0.2
					c0,0,0.1,0,0.2,0c1.1,0.7,1.6,1.1,2.6,1.8C386.2,67.1,385.3,68.2,384,69.2z"/>
				<path id="XMLID_144_" class="st4" d="M388.3,75.9c-0.2,0.2-0.4,0.3-0.5,0.5c-0.3,0.3-0.2,0.6,0.2,0.9c0.2,0.1,0.4,0.2,0.6,0.4
					c-0.1,0.1-0.2,0.1-0.3,0.2c-0.1,0.1-0.1,0.1-0.2,0c-0.6,0-1.2-0.2-2-0.8c-0.7-0.6-0.9-1.2-0.3-1.9c0.2-0.2,0.4-0.5,0.7-0.7
					c1.6-1.3,2.4-1.9,4-3.1c0.5-0.4,0.7-0.7-0.2-1.7c0.1-0.1,0.2-0.1,0.3-0.2c0,0,0.1,0,0.2,0c1.2,0.9,1.7,1.3,2.9,2.2
					C391.4,73.4,390.3,74.2,388.3,75.9z M396,69.9c-0.6,0.7-1.7,0.8-2.3,0.3c-0.6-0.4-0.6-1-0.2-1.5c0.5-0.6,1.6-0.9,2.4-0.3
					C396.4,68.8,396.5,69.4,396,69.9z"/>
				<path id="XMLID_141_" class="st4" d="M398.9,80.3c-2,2.2-5.2,2.9-7.7,0.9c-1.4-1.2-1.6-2.9-0.3-4.5c1.8-2.2,5.4-3.1,7.9-0.9
					C400.3,77,400.2,78.8,398.9,80.3z M392.5,78.5c-0.9,1-1.2,1.7-0.5,2.2c1,0.8,3.4-0.2,5.2-2.2c0.9-1,1.2-1.7,0.6-2.2
					C396.7,75.3,394.2,76.5,392.5,78.5z"/>
			</g>
		</g>
		<g id="XMLID_41_">
			<g id="XMLID_54_">
				<path id="XMLID_335_" class="st4" d="M421.8,102.8c-1.6,0.7-2.5,1.7-1.4,2.9c0.4,0.5,1.2,0.9,2.3,1.2c-0.1,0.1-0.1,0.2-0.2,0.3
					c0,0-0.1,0.1-0.1,0.1c0,0-0.1,0-0.2,0c-1.5-0.1-3.5-0.8-4.6-2c-1.5-1.5-0.6-3.1,1.4-4c3.2-1.5,8.9-1.5,11.3,1.5
					c1.1,1.3,0.5,2.3-0.8,2.8c-1.4,0.6-3.3,0.6-5-1.4c-0.6-0.7-1-1.4-1.3-2C422.9,102.4,422.3,102.6,421.8,102.8z M424.8,103.2
					c1.1,1.2,2.3,1.2,3.4,0.8c0.7-0.3,1-0.8,0.6-1.3c-0.8-0.9-2.9-1-4.7-0.6C424.3,102.5,424.6,102.9,424.8,103.2z"/>
				<path id="XMLID_333_" class="st4" d="M423.8,111c0.8,0.9,1.7,0.9,2.6,0.6c1.7-0.7,0.2-3.4,2.9-4.5c2-0.8,4.3-0.3,5.7,1.5
					c0.8,1.1,0.8,2.1,0.7,2.5c-1.2,0.4-2.1,0.1-2.5-0.3c-0.4-0.5-0.2-1.1,0.5-1.4c0.2-0.1,0.4-0.1,0.6-0.2c-0.1-0.2-0.1-0.3-0.2-0.4
					c-0.5-0.7-1.4-0.8-2.2-0.5c-1.9,0.8-0.6,3.6-3.2,4.7c-2,0.9-4.1,0.2-5.8-1.7c-0.8-0.9-1.1-1.9-0.9-2.5c1.2-0.5,2.2-0.3,2.7,0.2
					c0.4,0.4,0.2,1-0.5,1.3c-0.2,0.1-0.4,0.2-0.7,0.2C423.6,110.7,423.7,110.8,423.8,111z"/>
				<path id="XMLID_331_" class="st4" d="M432.3,115.5c-1.5,0.6-2.3,1.6-1.4,2.7c0.5,0.6,1.1,1.1,2.1,1.3c-0.1,0.1-0.1,0.2-0.2,0.3
					c0,0-0.1,0.1-0.1,0.1c-0.1,0-0.1,0-0.2,0c-1.8-0.3-3.2-0.9-4.2-2.2c-1.2-1.5-0.3-3,1.6-3.8c3.3-1.4,8.6-0.7,10.5,2
					c0.6,0.9,0.7,1.6,0.5,2.3c-1.7,0.6-2.7,0.3-3.3-0.4c-0.3-0.4-0.2-0.9,0.6-1.2c0.4-0.1,0.7-0.2,1.2-0.2c0-0.1-0.1-0.3-0.2-0.4
					C438.5,115,435.6,114.1,432.3,115.5z"/>
				<path id="XMLID_282_" class="st4" d="M442.9,126.9c-3.3,1.2-7.4,0.6-9.4-2.2c-1.2-1.6-0.6-3.3,1.8-4.2c3.2-1.3,7.8-0.7,9.7,2.3
					C446.1,124.5,445.2,126.1,442.9,126.9z M436.4,122.8c-1.5,0.6-2.1,1.1-1.6,1.8c0.8,1.2,4.1,1.1,7.2,0c1.6-0.6,2.2-1.1,1.7-1.8
					C442.8,121.5,439.3,121.6,436.4,122.8z"/>
				<path id="XMLID_280_" class="st4" d="M444.6,130.8c3-0.2,5.5,0.6,6.4,2.4c-0.4,0.5-0.9,0.8-1.3,0.9c-1.1,0.4-2-0.1-2.3-0.7
					c-0.3-0.5-0.2-1,0.5-1.2c0.1,0,0.2-0.1,0.4-0.1c-1.2-0.6-3.7-0.9-8.1-0.1c-0.5,0.1-0.8,0.2-1.3,0.3c-0.5-0.8-0.8-1.2-1.3-2
					c2.1-0.5,3.2-0.7,5.3-1.1c0.9-0.2,1.8-0.4,2.6-0.7c0.9-0.3,1.3-0.6,1.1-1.8c0.2,0,0.2,0,0.4-0.1c0.1,0,0.2,0,0.2,0.1
					c0.7,1.1,1,1.7,1.6,2.8C448.1,129.9,446.6,130.4,444.6,130.8z"/>
				<path id="XMLID_181_" class="st4" d="M450,137.8c2,0.2,4,0.9,4.7,2.4c0.6,1.3-0.2,2.3-1.7,2.8c-2.8,0.9-8,0-9.8-3.2
					c-0.1-0.2-0.2-0.4-0.3-0.6c-0.9,0.2-1.3,0.3-2.2,0.5c-0.2,0-0.3,0.1-0.4,0.1c-0.4,0.2-0.4,0.3,0,1.7c-0.1,0-0.2,0-0.4,0.1
					c-0.1,0-0.2,0-0.3-0.1c-0.8-1.3-1.2-2-2-3.3c0-0.1,0-0.1,0-0.1c4.4-1,6.6-1.4,11.2-2.1c0.6-0.1,1-0.2,1.3-0.3
					c0.5-0.2,0.8-0.4,0.6-1.5c0.2,0,0.2,0,0.4-0.1c0.1,0,0.2,0,0.2,0.1c0.6,1.2,0.9,1.8,1.5,2.9C452.2,137.4,450.8,137.7,450,137.8z
					 M444.4,139.9c0.9,1.7,4.6,1.8,6.5,1.2c0.9-0.3,1.4-0.8,1.1-1.5c-0.5-1.1-1.8-1.6-6.4-1c-0.6,0.1-0.8,0.1-1.4,0.2
					C444.1,139.3,444.2,139.6,444.4,139.9z"/>
				<path id="XMLID_178_" class="st4" d="M450.1,147.6c-0.3,0-0.6,0.1-0.8,0.2c-0.4,0.2-0.5,0.4-0.3,0.8c0.1,0.2,0.2,0.4,0.4,0.6
					c-0.2,0-0.2,0-0.4,0.1c-0.1,0-0.1,0-0.2,0c-0.5-0.3-1.1-0.7-1.6-1.7c-0.4-0.8-0.2-1.4,0.7-1.8c0.3-0.1,0.7-0.2,1.1-0.3
					c2.2-0.3,3.3-0.5,5.5-0.7c0.7-0.1,1-0.2,0.8-1.5c0.1,0,0.2,0,0.4,0c0.1,0,0.1,0,0.2,0.1c0.6,1.3,0.9,2,1.5,3.3
					C454.4,147,453,147.2,450.1,147.6z M460.8,146.4c-1,0.3-2-0.2-2.3-0.9c-0.3-0.6,0-1.2,0.7-1.4c0.9-0.2,2,0.1,2.4,1
					C461.7,145.7,461.4,146.2,460.8,146.4z"/>
				<path id="XMLID_174_" class="st4" d="M453.9,155c-1.6-0.2-3.6-0.9-4.3-2.4c-0.6-1.3,0.2-2.3,1.6-2.8c2.7-0.9,7.8,0.3,9.1,3.7
					c0.4,1,0.5,1.8,0.6,2.8c-2.5,0.2-3.8,0.4-6.2,0.7c-0.5,0.1-0.9,0.2-1.2,0.3c-0.6,0.2-0.7,0.4-0.6,1.5c-0.1,0-0.2,0-0.3,0.1
					c-0.1,0-0.1,0-0.1-0.1c-0.5-1.2-0.7-1.7-1.2-2.9C451.9,155.4,453.2,155.1,453.9,155z M459.2,153.2c-0.7-1.8-4.2-2.2-6-1.5
					c-0.9,0.3-1.4,0.7-1.1,1.4c0.5,1.1,1.6,1.6,5.9,1.2c0.5,0,0.8-0.1,1.3-0.1C459.4,153.9,459.3,153.5,459.2,153.2z M460.2,150.6
					c1.8-0.1,3.4,0.4,3.7,1.3c0.3,0.8-0.6,1.5-0.4,2.2c0.2,0.6,0.7,0.8,1.6,0.8c0,0.2,0.1,0.3,0.1,0.5c-1.8,0.1-3.2-0.4-3.5-1.3
					c-0.3-0.9,0.6-1.5,0.3-2.2c-0.2-0.6-0.9-0.9-1.7-0.8C460.2,150.9,460.2,150.8,460.2,150.6z"/>
				<path id="XMLID_171_" class="st4" d="M460.9,165.9c-2.8,0.8-6-0.2-7.1-3.2c-0.7-1.7,0.1-3.3,2.1-4c2.7-0.9,6.4,0.2,7.4,3.3
					C463.9,163.9,462.9,165.4,460.9,165.9z M456.5,161.1c-1.3,0.4-1.9,0.8-1.6,1.6c0.5,1.2,3.1,1.6,5.7,0.8c1.3-0.4,1.9-0.8,1.7-1.6
					C461.8,160.6,459,160.3,456.5,161.1z"/>
			</g>
		</g>
		<g id="XMLID_74_">
			<g id="XMLID_52_">
				<path id="XMLID_215_" class="st4" d="M464.4,214.9c-0.4,0.1-0.6,0.3-0.5,0.7c0,0.2,0.1,0.4,0.2,0.7c-0.1,0-0.2,0-0.4,0
					c-0.1,0-0.1,0-0.2-0.1c-0.4-0.4-0.7-1-0.9-2c-0.1-0.9,0.2-1.4,1.1-1.6c0.3,0,0.7-0.1,1,0c3.6,0.2,5.4,0.3,9,0.6
					c0.8,0.1,0.9-0.1,1-1.2c0.1,0,0.2,0,0.3,0c0.1,0,0.2,0,0.2,0.2c0.2,1.4,0.3,2.1,0.5,3.4c0,0.1,0,0.1-0.1,0.1
					c-4.2-0.4-6.3-0.6-10.5-0.9C464.9,214.9,464.6,214.9,464.4,214.9z"/>
				<path id="XMLID_154_" class="st4" d="M465.7,220c-0.3,0-0.5,0-0.7,0c-0.4,0-0.6,0.2-0.5,0.7c0,0.2,0.1,0.4,0.1,0.7
					c-0.1,0-0.2,0-0.4,0c-0.1,0-0.1-0.1-0.2-0.1c-0.4-0.4-0.7-1-0.8-2c-0.1-0.9,0.3-1.4,1.2-1.5c0.3,0,0.6,0,1,0
					c2,0.2,2.9,0.3,4.9,0.6c0.6,0.1,0.9,0,1.1-1.4c0.1,0,0.2,0,0.3,0c0.1,0,0.1,0.1,0.1,0.1c0.2,1.5,0.2,2.3,0.4,3.8
					C469.6,220.5,468.3,220.3,465.7,220z M475.2,221.3c-0.9,0.1-1.7-0.7-1.7-1.5c-0.1-0.7,0.3-1.2,0.9-1.3c0.8-0.1,1.7,0.5,1.8,1.5
					C476.3,220.8,475.8,221.3,475.2,221.3z"/>
				<path id="XMLID_125_" class="st4" d="M470.1,225.6c1.7,0.8,2.7,2.1,2.8,3.7c0,1.6-1,2.3-2.4,2.3c-2.7,0-6.5-2.6-6.6-6.2
					c-0.1-1.1,0-1.9,0.2-2.8c4.4,0.6,6.6,0.9,10.9,1.6c0.7,0.1,0.9,0,1.1-1.2c0.1,0,0.2,0,0.3,0.1c0.1,0,0.2,0.1,0.2,0.2
					c0.1,1.4,0.1,2.1,0.2,3.5c0,0.1,0,0.1-0.1,0.1c-1.6-0.3-2.3-0.4-3.9-0.7C471.9,226.1,470.8,225.8,470.1,225.6z M464.7,225.9
					c0.1,1.9,3,3.2,4.8,3.2c0.9,0,1.5-0.3,1.5-1.1c0-1.2-0.9-2.1-4.8-2.9c-0.5-0.1-0.7-0.1-1.2-0.2
					C464.8,225.2,464.7,225.6,464.7,225.9z"/>
				<path id="XMLID_123_" class="st4" d="M468.9,235.7c2.3,0.9,4.1,3.7,3.6,4.6c-0.2,0.3-1,0.4-1.4,0.3c-1-0.1-1.4-0.9-1.4-1.6
					c0-0.5,0.3-1,1-1c0.1,0,0.2,0,0.3,0.1c-0.6-1.1-2.3-2.2-5.9-3.1c-0.4-0.1-0.6-0.2-1.1-0.3c0-0.9,0-1.3,0.1-2.2
					c1.7,0.4,2.6,0.6,4.4,1c0.7,0.2,1.5,0.3,2.2,0.3c0.8,0,1.2-0.1,1.6-1.3c0.1,0,0.2,0,0.3,0.1c0,0,0.1,0.1,0.1,0.1
					c0,1.3,0,2-0.1,3.3C471.8,236.2,470.5,236.1,468.9,235.7z"/>
				<path id="XMLID_120_" class="st4" d="M465.7,245.8c-1.3-0.9-2.5-2.3-2.4-4c0.1-1.4,1.2-2,2.6-1.9c2.7,0.2,6.3,3.3,5.8,7.1
					c-0.2,1.2-0.4,2-0.8,2.9c-2.2-0.9-3.3-1.3-5.5-2.1c-0.4-0.2-0.8-0.3-1.1-0.3c-0.6-0.1-0.8,0.1-1.2,1c-0.1,0-0.2-0.1-0.3-0.1
					c0,0-0.1-0.1-0.1-0.1c0.2-1.2,0.3-1.8,0.4-3.1C463.8,245.3,465,245.6,465.7,245.8z M470.9,246.4c0.3-2-2.5-3.7-4.3-3.9
					c-0.8-0.1-1.5,0.1-1.6,0.8c-0.1,1.2,0.6,2.1,4.3,3.6c0.5,0.2,0.7,0.3,1.1,0.5C470.7,247.2,470.9,246.8,470.9,246.4z"/>
			</g>
		</g>
	</g>
</g>
<g id="Layer_5">
	<rect id="XMLID_6_" x="204" y="187" class="st5" width="131" height="90"/>
	<text id="XMLID_7_" transform="matrix(1 0 0 1 224.5244 206.4639)"><tspan x="0" y="0" class="st6 st7 st8">Clique</tspan><tspan x="20.2" y="30" class="st4 st7 st9">no seu</tspan><tspan x="8.5" y="65" class="st4 st7 st8">signo</tspan></text>
</g>
</svg>
